<mxfile host="app.diagrams.net" modified="2023-02-25T14:46:33.561Z" agent="5.0 (Macintosh; Intel Mac OS X 10_15_7) AppleWebKit/537.36 (KHTML, like Gecko) Chrome/110.0.0.0 Safari/537.36" etag="FsRj4ZxbdnqIYiODZjp5" version="20.8.23" type="github">
  <diagram name="Page-1" id="8kLWx7mdblNUVvPbbAvW">
    <mxGraphModel dx="2835" dy="2235" grid="1" gridSize="10" guides="1" tooltips="1" connect="1" arrows="1" fold="1" page="1" pageScale="1" pageWidth="850" pageHeight="1100" background="none" math="0" shadow="0">
      <root>
        <mxCell id="0" />
        <mxCell id="1" parent="0" />
        <mxCell id="D5WEuP7RKEWB0JZD9iPH-8" value="" style="fontColor=#0066CC;verticalAlign=top;verticalLabelPosition=bottom;labelPosition=center;align=center;html=1;outlineConnect=0;fillColor=#CCCCCC;strokeColor=#6881B3;gradientColor=none;gradientDirection=north;strokeWidth=2;shape=mxgraph.networks.server;" parent="1" vertex="1">
          <mxGeometry x="329.5" y="-20" width="90" height="100" as="geometry" />
        </mxCell>
        <mxCell id="D5WEuP7RKEWB0JZD9iPH-9" value="Splunk Server" style="text;strokeColor=none;align=center;fillColor=none;html=1;verticalAlign=middle;whiteSpace=wrap;rounded=0;" parent="1" vertex="1">
          <mxGeometry x="337.5" y="-60" width="60" height="30" as="geometry" />
        </mxCell>
        <mxCell id="D5WEuP7RKEWB0JZD9iPH-10" value="" style="endArrow=classic;html=1;rounded=0;fillColor=#f8cecc;strokeColor=#b85450;strokeWidth=3;gradientColor=#ea6b66;" parent="1" edge="1">
          <mxGeometry relative="1" as="geometry">
            <mxPoint x="290" y="280" as="sourcePoint" />
            <mxPoint x="230" y="380" as="targetPoint" />
          </mxGeometry>
        </mxCell>
        <mxCell id="D5WEuP7RKEWB0JZD9iPH-14" value="" style="endArrow=classic;html=1;rounded=0;fillColor=#f8cecc;strokeColor=#b85450;strokeWidth=3;gradientColor=#ea6b66;" parent="1" edge="1">
          <mxGeometry relative="1" as="geometry">
            <mxPoint x="380" y="280" as="sourcePoint" />
            <mxPoint x="380" y="390" as="targetPoint" />
          </mxGeometry>
        </mxCell>
        <mxCell id="D5WEuP7RKEWB0JZD9iPH-18" value="" style="endArrow=classic;html=1;rounded=0;fillColor=#f8cecc;strokeColor=#b85450;strokeWidth=3;gradientColor=#ea6b66;" parent="1" edge="1">
          <mxGeometry relative="1" as="geometry">
            <mxPoint x="460" y="280" as="sourcePoint" />
            <mxPoint x="527.5" y="380" as="targetPoint" />
          </mxGeometry>
        </mxCell>
        <mxCell id="D5WEuP7RKEWB0JZD9iPH-31" value="" style="edgeStyle=segmentEdgeStyle;endArrow=classic;html=1;rounded=0;endSize=8;startSize=8;fontColor=#000000;strokeWidth=3;fillColor=#d5e8d4;strokeColor=#82b366;" parent="1" edge="1">
          <mxGeometry width="50" height="50" relative="1" as="geometry">
            <mxPoint x="390" y="480" as="sourcePoint" />
            <mxPoint x="320" y="30" as="targetPoint" />
            <Array as="points">
              <mxPoint x="390" y="500" />
              <mxPoint x="67" y="500" />
              <mxPoint x="67" y="30" />
            </Array>
          </mxGeometry>
        </mxCell>
        <mxCell id="D5WEuP7RKEWB0JZD9iPH-33" value="" style="edgeStyle=segmentEdgeStyle;endArrow=classic;html=1;rounded=0;endSize=8;startSize=8;fontColor=#000000;strokeWidth=3;fillColor=#d5e8d4;strokeColor=#82b366;" parent="1" edge="1">
          <mxGeometry width="50" height="50" relative="1" as="geometry">
            <mxPoint x="190" y="480" as="sourcePoint" />
            <mxPoint x="320" y="59" as="targetPoint" />
            <Array as="points">
              <mxPoint x="110" y="480" />
              <mxPoint x="110" y="59" />
            </Array>
          </mxGeometry>
        </mxCell>
        <mxCell id="D5WEuP7RKEWB0JZD9iPH-34" value="" style="edgeStyle=segmentEdgeStyle;endArrow=classic;html=1;rounded=0;endSize=8;startSize=8;fontColor=#000000;strokeWidth=3;fillColor=#d5e8d4;strokeColor=#82b366;" parent="1" edge="1">
          <mxGeometry width="50" height="50" relative="1" as="geometry">
            <mxPoint x="550" y="480" as="sourcePoint" />
            <mxPoint x="320" y="-10" as="targetPoint" />
            <Array as="points">
              <mxPoint x="550" y="510" />
              <mxPoint x="550" y="530" />
              <mxPoint x="14" y="530" />
              <mxPoint x="14" y="-10" />
            </Array>
          </mxGeometry>
        </mxCell>
        <mxCell id="URxYNGc6Y4Ne9e4dtN-q-3" value="" style="endArrow=none;html=1;rounded=0;" edge="1" parent="1">
          <mxGeometry width="50" height="50" relative="1" as="geometry">
            <mxPoint x="420" y="20" as="sourcePoint" />
            <mxPoint x="620" y="20" as="targetPoint" />
          </mxGeometry>
        </mxCell>
        <mxCell id="URxYNGc6Y4Ne9e4dtN-q-11" value="" style="html=1;outlineConnect=0;fillColor=#CCCCCC;strokeColor=#6881B3;gradientColor=none;gradientDirection=north;strokeWidth=2;shape=mxgraph.networks.cloud;fontColor=#ffffff;shadow=0;dashed=1;dashPattern=1 2;opacity=0;" vertex="1" parent="1">
          <mxGeometry x="250" y="280" width="90" height="50" as="geometry" />
        </mxCell>
        <mxCell id="URxYNGc6Y4Ne9e4dtN-q-16" value="" style="html=1;outlineConnect=0;fillColor=#FFFFFF;strokeColor=#6881B3;gradientColor=none;gradientDirection=north;strokeWidth=2;shape=mxgraph.networks.cloud;fontColor=#ffffff;shadow=0;" vertex="1" parent="1">
          <mxGeometry x="130" y="900" width="420" height="260" as="geometry" />
        </mxCell>
        <mxCell id="D5WEuP7RKEWB0JZD9iPH-1" value="" style="fontColor=#0066CC;verticalAlign=top;verticalLabelPosition=bottom;labelPosition=center;align=center;html=1;outlineConnect=0;fillColor=#CCCCCC;strokeColor=#6881B3;gradientColor=none;gradientDirection=north;strokeWidth=2;shape=mxgraph.networks.desktop_pc;" parent="1" vertex="1">
          <mxGeometry x="350.00444444444446" y="156.66666666666669" width="53.33333333333334" height="113.33333333333334" as="geometry" />
        </mxCell>
        <mxCell id="r-djEIy74ulVzaPChZWc-24" value="" style="endArrow=classic;html=1;rounded=0;strokeWidth=3;fontColor=#000000;fillColor=#d5e8d4;strokeColor=#82b366;" parent="1" edge="1">
          <mxGeometry width="50" height="50" relative="1" as="geometry">
            <mxPoint x="376.24" y="150" as="sourcePoint" />
            <mxPoint x="376.24" y="90" as="targetPoint" />
          </mxGeometry>
        </mxCell>
        <mxCell id="URxYNGc6Y4Ne9e4dtN-q-21" value="" style="group" vertex="1" connectable="0" parent="1">
          <mxGeometry x="400" y="160" width="300" height="60" as="geometry" />
        </mxCell>
        <mxCell id="D5WEuP7RKEWB0JZD9iPH-22" value="Ansible Control Node" style="swimlane;fontStyle=0;childLayout=stackLayout;horizontal=1;startSize=30;horizontalStack=0;resizeParent=1;resizeParentMax=0;resizeLast=0;collapsible=1;marginBottom=0;whiteSpace=wrap;html=1;" parent="URxYNGc6Y4Ne9e4dtN-q-21" vertex="1">
          <mxGeometry x="160" width="140" height="60" as="geometry" />
        </mxCell>
        <mxCell id="D5WEuP7RKEWB0JZD9iPH-23" value="Deploys IP Tables and other ansible scripts&lt;br&gt;&lt;ul&gt;&lt;li&gt;Logs will be sent to Splunk&lt;/li&gt;&lt;/ul&gt;" style="text;strokeColor=none;fillColor=none;align=left;verticalAlign=middle;spacingLeft=4;spacingRight=4;overflow=hidden;points=[[0,0.5],[1,0.5]];portConstraint=eastwest;rotatable=0;whiteSpace=wrap;html=1;" parent="D5WEuP7RKEWB0JZD9iPH-22" vertex="1">
          <mxGeometry y="30" width="140" height="30" as="geometry" />
        </mxCell>
        <mxCell id="D5WEuP7RKEWB0JZD9iPH-26" value="" style="endArrow=none;html=1;rounded=0;" parent="URxYNGc6Y4Ne9e4dtN-q-21" edge="1">
          <mxGeometry width="50" height="50" relative="1" as="geometry">
            <mxPoint as="sourcePoint" />
            <mxPoint x="180" as="targetPoint" />
          </mxGeometry>
        </mxCell>
        <mxCell id="URxYNGc6Y4Ne9e4dtN-q-19" value="" style="fontColor=#0066CC;verticalAlign=top;verticalLabelPosition=bottom;labelPosition=center;align=center;html=1;outlineConnect=0;fillColor=#CCCCCC;strokeColor=#6881B3;gradientColor=none;gradientDirection=north;strokeWidth=2;shape=mxgraph.networks.desktop_pc;shadow=0;" vertex="1" parent="1">
          <mxGeometry x="361" y="596" width="60" height="130" as="geometry" />
        </mxCell>
        <mxCell id="URxYNGc6Y4Ne9e4dtN-q-26" value="" style="edgeStyle=segmentEdgeStyle;endArrow=classic;html=1;curved=0;rounded=0;endSize=8;startSize=8;fillColor=#d5e8d4;strokeColor=#82b366;strokeWidth=3;" edge="1" parent="1" target="D5WEuP7RKEWB0JZD9iPH-8">
          <mxGeometry width="50" height="50" relative="1" as="geometry">
            <mxPoint x="425" y="605" as="sourcePoint" />
            <mxPoint x="795" y="55" as="targetPoint" />
            <Array as="points">
              <mxPoint x="865.1600000000001" y="605" />
              <mxPoint x="865.1600000000001" y="45" />
            </Array>
          </mxGeometry>
        </mxCell>
        <mxCell id="URxYNGc6Y4Ne9e4dtN-q-35" value="" style="group" vertex="1" connectable="0" parent="1">
          <mxGeometry x="-277.99999999999994" y="603" width="640" height="90" as="geometry" />
        </mxCell>
        <mxCell id="URxYNGc6Y4Ne9e4dtN-q-20" value="" style="group" vertex="1" connectable="0" parent="URxYNGc6Y4Ne9e4dtN-q-35">
          <mxGeometry width="430" height="90" as="geometry" />
        </mxCell>
        <mxCell id="r-djEIy74ulVzaPChZWc-18" value="Suricata IDS/IPS" style="swimlane;fontStyle=0;childLayout=stackLayout;horizontal=1;startSize=30;horizontalStack=0;resizeParent=1;resizeParentMax=0;resizeLast=0;collapsible=1;marginBottom=0;whiteSpace=wrap;html=1;" parent="URxYNGc6Y4Ne9e4dtN-q-20" vertex="1">
          <mxGeometry x="290" width="140" height="80" as="geometry" />
        </mxCell>
        <mxCell id="r-djEIy74ulVzaPChZWc-19" value="Suricata will act as the gateway into the VPC" style="text;strokeColor=none;fillColor=none;align=left;verticalAlign=middle;spacingLeft=4;spacingRight=4;overflow=hidden;points=[[0,0.5],[1,0.5]];portConstraint=eastwest;rotatable=0;whiteSpace=wrap;html=1;" parent="r-djEIy74ulVzaPChZWc-18" vertex="1">
          <mxGeometry y="30" width="140" height="50" as="geometry" />
        </mxCell>
        <mxCell id="r-djEIy74ulVzaPChZWc-22" value="" style="shape=partialRectangle;whiteSpace=wrap;html=1;bottom=0;right=0;fillColor=none;fontColor=#000000;" parent="URxYNGc6Y4Ne9e4dtN-q-35" vertex="1">
          <mxGeometry x="429.99999999999994" y="10" width="210" height="10" as="geometry" />
        </mxCell>
        <mxCell id="D5WEuP7RKEWB0JZD9iPH-3" value="" style="fontColor=#0066CC;verticalAlign=top;verticalLabelPosition=bottom;labelPosition=center;align=center;html=1;outlineConnect=0;fillColor=#CCCCCC;strokeColor=#6881B3;gradientColor=none;gradientDirection=north;strokeWidth=2;shape=mxgraph.networks.pc;" parent="1" vertex="1">
          <mxGeometry x="159.5" y="403" width="100" height="70" as="geometry" />
        </mxCell>
        <mxCell id="D5WEuP7RKEWB0JZD9iPH-4" value="" style="fontColor=#0066CC;verticalAlign=top;verticalLabelPosition=bottom;labelPosition=center;align=center;html=1;outlineConnect=0;fillColor=#CCCCCC;strokeColor=#6881B3;gradientColor=none;gradientDirection=north;strokeWidth=2;shape=mxgraph.networks.pc;" parent="1" vertex="1">
          <mxGeometry x="489.5" y="403" width="100" height="70" as="geometry" />
        </mxCell>
        <mxCell id="D5WEuP7RKEWB0JZD9iPH-5" value="" style="fontColor=#0066CC;verticalAlign=top;verticalLabelPosition=bottom;labelPosition=center;align=center;html=1;outlineConnect=0;fillColor=#CCCCCC;strokeColor=#6881B3;gradientColor=none;gradientDirection=north;strokeWidth=2;shape=mxgraph.networks.pc;" parent="1" vertex="1">
          <mxGeometry x="324.5" y="403" width="100" height="70" as="geometry" />
        </mxCell>
        <mxCell id="r-djEIy74ulVzaPChZWc-25" value="CentOS" style="text;strokeColor=none;align=center;fillColor=none;html=1;verticalAlign=middle;whiteSpace=wrap;rounded=0;fontColor=#000000;" parent="1" vertex="1">
          <mxGeometry x="189.5" y="420" width="60" height="30" as="geometry" />
        </mxCell>
        <mxCell id="r-djEIy74ulVzaPChZWc-26" value="Ubuntu" style="text;strokeColor=none;align=center;fillColor=none;html=1;verticalAlign=middle;whiteSpace=wrap;rounded=0;fontColor=#000000;" parent="1" vertex="1">
          <mxGeometry x="351" y="418" width="60" height="30" as="geometry" />
        </mxCell>
        <mxCell id="r-djEIy74ulVzaPChZWc-27" value="Debian" style="text;strokeColor=none;align=center;fillColor=none;html=1;verticalAlign=middle;whiteSpace=wrap;rounded=0;fontColor=#000000;" parent="1" vertex="1">
          <mxGeometry x="513.5" y="419" width="60" height="30" as="geometry" />
        </mxCell>
        <mxCell id="URxYNGc6Y4Ne9e4dtN-q-24" value="" style="verticalLabelPosition=bottom;verticalAlign=top;html=1;shape=mxgraph.basic.rect;fillColor2=none;strokeWidth=9;size=20;indent=5;shadow=0;strokeColor=#990000;fillColor=default;gradientColor=#CC0000;gradientDirection=east;perimeterSpacing=0;opacity=10;" vertex="1" parent="1">
          <mxGeometry x="-70" y="-80" width="990" height="740" as="geometry" />
        </mxCell>
        <mxCell id="URxYNGc6Y4Ne9e4dtN-q-1" value="Splunk" style="swimlane;fontStyle=0;childLayout=stackLayout;horizontal=1;startSize=30;horizontalStack=0;resizeParent=1;resizeParentMax=0;resizeLast=0;collapsible=1;marginBottom=0;whiteSpace=wrap;html=1;" vertex="1" parent="1">
          <mxGeometry x="620" y="-30" width="140" height="80" as="geometry" />
        </mxCell>
        <mxCell id="URxYNGc6Y4Ne9e4dtN-q-2" value="Will gather logs and alerts from all devices. And ingest Sigma rules" style="text;strokeColor=none;fillColor=none;align=left;verticalAlign=middle;spacingLeft=4;spacingRight=4;overflow=hidden;points=[[0,0.5],[1,0.5]];portConstraint=eastwest;rotatable=0;whiteSpace=wrap;html=1;" vertex="1" parent="URxYNGc6Y4Ne9e4dtN-q-1">
          <mxGeometry y="30" width="140" height="50" as="geometry" />
        </mxCell>
        <mxCell id="URxYNGc6Y4Ne9e4dtN-q-30" value="" style="strokeWidth=3;html=1;shape=mxgraph.flowchart.annotation_1;align=left;pointerEvents=1;shadow=0;strokeColor=#FFD966;fillColor=default;gradientColor=none;gradientDirection=east;rotation=-90;" vertex="1" parent="1">
          <mxGeometry x="333.5" y="354.5" width="107.25" height="353.75" as="geometry" />
        </mxCell>
        <mxCell id="URxYNGc6Y4Ne9e4dtN-q-32" value="" style="endArrow=none;html=1;rounded=0;strokeWidth=4;strokeColor=#FFD966;" edge="1" parent="1">
          <mxGeometry relative="1" as="geometry">
            <mxPoint x="400" y="595" as="sourcePoint" />
            <mxPoint x="400" y="480" as="targetPoint" />
          </mxGeometry>
        </mxCell>
        <mxCell id="URxYNGc6Y4Ne9e4dtN-q-46" value="Legend" style="swimlane;childLayout=stackLayout;horizontal=1;startSize=30;horizontalStack=0;rounded=1;fontSize=14;fontStyle=0;strokeWidth=2;resizeParent=0;resizeLast=1;shadow=0;dashed=0;align=center;strokeColor=#FFD966;fillColor=default;gradientColor=none;gradientDirection=east;" vertex="1" parent="1">
          <mxGeometry x="1120" y="490" width="240" height="130" as="geometry" />
        </mxCell>
        <mxCell id="URxYNGc6Y4Ne9e4dtN-q-47" value="- Logs sent to Splunk&#xa;- Client connection to Suricata&#xa;- Ansible control node to clients&#xa;" style="align=left;strokeColor=none;fillColor=none;spacingLeft=4;fontSize=12;verticalAlign=top;resizable=0;rotatable=0;part=1;shadow=0;strokeWidth=4;" vertex="1" parent="URxYNGc6Y4Ne9e4dtN-q-46">
          <mxGeometry y="30" width="240" height="100" as="geometry" />
        </mxCell>
        <mxCell id="URxYNGc6Y4Ne9e4dtN-q-51" value="" style="edgeStyle=segmentEdgeStyle;endArrow=classic;html=1;curved=0;rounded=0;endSize=8;startSize=8;strokeColor=#6c8ebf;strokeWidth=3;entryX=0.485;entryY=0.419;entryDx=0;entryDy=0;entryPerimeter=0;fillColor=#dae8fc;" edge="1" parent="1" target="URxYNGc6Y4Ne9e4dtN-q-24">
          <mxGeometry width="50" height="50" relative="1" as="geometry">
            <mxPoint x="425" y="710" as="sourcePoint" />
            <mxPoint x="680" y="240" as="targetPoint" />
            <Array as="points">
              <mxPoint x="710" y="710" />
              <mxPoint x="710" y="230" />
            </Array>
          </mxGeometry>
        </mxCell>
      </root>
    </mxGraphModel>
  </diagram>
</mxfile>
